PathFileType	4	(X/Y/Z)	C:\Users\italobelli\Desktop\GitHub\PTbot_officialCBL\Personal_Results\FLX03_noisy1.trc
DataRate	CameraRate	NumFrames	NumMarkers	Units	OrigDataRate	OrigDataStartFrame	OrigNumFrames
106.125000	106.125000	17	9	m	106.125000	213	850
Frame#	Time		gu		centelbow		EpL		centpxt8		centijc7		ij		ts		aa		ai
			X1	Y1	Z1	X2	Y2	Z2	X3	Y3	Z3	X4	Y4	Z4	X5	Y5	Z5	X6	Y6	Z6	X7	Y7	Z7	X8	Y8	Z8	X9	Y9	Z9

213	1.9976	-0.066265	0.02125	0.15179	0.14749	-0.040444	0.24461	0.14458	-0.012934	0.26117	-0.046816	-0.15316	-0.008669	-0.046816	0.031938	-0.008669	0	0	0	-0.14725	-0.003034	0.061764	-0.099261	0.04453	0.16004	-0.13556	-0.10442	0.11145
214	2.0071	-0.066292	0.021821	0.1514	0.14794	-0.037191	0.24456	0.14481	-0.0096091	0.26096	-0.046816	-0.15316	-0.008669	-0.046816	0.031938	-0.008669	0	0	0	-0.14733	-0.0032023	0.061802	-0.099206	0.044959	0.15976	-0.1354	-0.10435	0.11202
215	2.0165	-0.066343	0.022405	0.151	0.14836	-0.033903	0.24449	0.145	-0.0062527	0.26072	-0.046816	-0.15316	-0.008669	-0.046816	0.031938	-0.008669	0	0	0	-0.14742	-0.0033608	0.061838	-0.099161	0.045402	0.15947	-0.13525	-0.10425	0.11259
216	2.0259	-0.066416	0.023	0.15058	0.14874	-0.03058	0.24439	0.14515	-0.0028641	0.26045	-0.046816	-0.15316	-0.008669	-0.046816	0.031938	-0.008669	0	0	0	-0.14751	-0.0035098	0.061869	-0.099126	0.045862	0.15917	-0.1351	-0.10414	0.11317
217	2.0353	-0.066511	0.023606	0.15015	0.14908	-0.027224	0.24427	0.14524	0.00055483	0.26016	-0.046816	-0.15316	-0.008669	-0.046816	0.031938	-0.008669	0	0	0	-0.1476	-0.0036498	0.061898	-0.099101	0.046335	0.15885	-0.13496	-0.10401	0.11374
218	2.0448	-0.066627	0.024222	0.14971	0.14939	-0.023837	0.24413	0.1453	0.004002	0.25983	-0.046816	-0.15316	-0.008669	-0.046816	0.031938	-0.008669	0	0	0	-0.14769	-0.0037811	0.061923	-0.099086	0.046822	0.15852	-0.13483	-0.10385	0.11433
219	2.0542	-0.066764	0.024848	0.14926	0.14966	-0.020421	0.24396	0.14531	0.0074754	0.25948	-0.046816	-0.15316	-0.008669	-0.046816	0.031938	-0.008669	0	0	0	-0.14778	-0.0039041	0.061946	-0.09908	0.047323	0.15818	-0.1347	-0.10367	0.11491
220	2.0636	-0.06692	0.025482	0.1488	0.1499	-0.016977	0.24377	0.14527	0.010973	0.2591	-0.046816	-0.15316	-0.008669	-0.046816	0.031938	-0.008669	0	0	0	-0.14787	-0.0040191	0.061965	-0.099083	0.047835	0.15783	-0.13458	-0.10348	0.11549
221	2.073	-0.067096	0.026124	0.14832	0.1501	-0.013508	0.24356	0.1452	0.014493	0.25869	-0.046816	-0.15316	-0.008669	-0.046816	0.031938	-0.008669	0	0	0	-0.14797	-0.0041266	0.061981	-0.099096	0.048359	0.15747	-0.13446	-0.10327	0.11608
222	2.0824	-0.067289	0.026774	0.14783	0.15026	-0.010015	0.24333	0.14508	0.018033	0.25826	-0.046816	-0.15316	-0.008669	-0.046816	0.031938	-0.008669	0	0	0	-0.14807	-0.0042268	0.061995	-0.099117	0.048893	0.15709	-0.13435	-0.10304	0.11667
223	2.0919	-0.0675	0.02743	0.14734	0.15039	-0.0065008	0.24308	0.14492	0.021592	0.25781	-0.046816	-0.15316	-0.008669	-0.046816	0.031938	-0.008669	0	0	0	-0.14816	-0.0043202	0.062005	-0.099146	0.049438	0.15671	-0.13424	-0.10279	0.11725
224	2.1013	-0.067727	0.028092	0.14683	0.15049	-0.0029672	0.24282	0.14472	0.025167	0.25733	-0.046816	-0.15316	-0.008669	-0.046816	0.031938	-0.008669	0	0	0	-0.14826	-0.0044071	0.062013	-0.099184	0.049992	0.15632	-0.13413	-0.10253	0.11784
225	2.1107	-0.067971	0.028758	0.14632	0.15056	0.000584	0.24253	0.14448	0.028756	0.25682	-0.046816	-0.15316	-0.008669	-0.046816	0.031938	-0.008669	0	0	0	-0.14836	-0.0044879	0.062017	-0.09923	0.050554	0.15591	-0.13403	-0.10225	0.11843
226	2.1201	-0.068229	0.029429	0.1458	0.15059	0.0041508	0.24222	0.1442	0.032357	0.2563	-0.046816	-0.15316	-0.008669	-0.046816	0.031938	-0.008669	0	0	0	-0.14846	-0.004563	0.062019	-0.099284	0.051124	0.1555	-0.13393	-0.10196	0.11902
227	2.1296	-0.068502	0.030104	0.14527	0.15058	0.0077312	0.2419	0.14389	0.035969	0.25575	-0.046816	-0.15316	-0.008669	-0.046816	0.031938	-0.008669	0	0	0	-0.14856	-0.0046328	0.062019	-0.099346	0.051701	0.15508	-0.13384	-0.10165	0.1196
228	2.139	-0.068789	0.030781	0.14473	0.15054	0.011323	0.24156	0.14353	0.039589	0.25519	-0.046816	-0.15316	-0.008669	-0.046816	0.031938	-0.008669	0	0	0	-0.14866	-0.0046975	0.062016	-0.099415	0.052284	0.15465	-0.13375	-0.10133	0.12019
229	2.1484	-0.069088	0.03146	0.14419	0.15047	0.014925	0.2412	0.14314	0.043216	0.2546	-0.046816	-0.15316	-0.008669	-0.046816	0.031938	-0.008669	0	0	0	-0.14876	-0.0047576	0.06201	-0.099492	0.052873	0.15422	-0.13366	-0.101	0.12077
